<svg width="10" height="18" viewBox="0 0 10 18" fill="none" xmlns="http://www.w3.org/2000/svg">
<path d="M9.55741 0.18862L7.28804 0.185059C4.73849 0.185059 3.09085 1.83828 3.09085 4.39708V6.33911H0.809106C0.611936 6.33911 0.452271 6.49544 0.452271 6.68827V9.50204C0.452271 9.69487 0.612119 9.85102 0.809106 9.85102H3.09085V16.9511C3.09085 17.1439 3.25052 17.3 3.44769 17.3H6.42472C6.62189 17.3 6.78155 17.1437 6.78155 16.9511V9.85102H9.44945C9.64662 9.85102 9.80628 9.69487 9.80628 9.50204L9.80737 6.68827C9.80737 6.59568 9.76969 6.50701 9.70287 6.44149C9.63606 6.37596 9.54503 6.33911 9.45036 6.33911H6.78155V4.69283C6.78155 3.90156 6.97435 3.49987 8.02829 3.49987L9.55704 3.49934C9.75403 3.49934 9.9137 3.34301 9.9137 3.15035V0.537604C9.9137 0.345128 9.75421 0.188976 9.55741 0.18862Z" fill="white"/>
</svg>
