<svg width="20" height="19" viewBox="0 0 20 19" fill="none" xmlns="http://www.w3.org/2000/svg">
<path d="M19.2024 5.97275C19.1586 5.00036 18.9978 4.33185 18.7675 3.75258C18.5299 3.1377 18.1644 2.5872 17.6854 2.12956C17.2175 1.6648 16.6509 1.30367 16.0295 1.07492C15.4337 0.849662 14.7538 0.692415 13.7595 0.649542C12.7578 0.603038 12.4398 0.592285 9.89927 0.592285C7.35872 0.592285 7.04072 0.603038 6.04275 0.645911C5.04849 0.688784 4.36494 0.84617 3.77278 1.07129C3.14393 1.30367 2.58104 1.66117 2.11311 2.12956C1.6379 2.5872 1.26878 3.14133 1.03475 3.74909C0.804425 4.33185 0.643642 4.99673 0.599804 5.96912C0.552255 6.94877 0.54126 7.25977 0.54126 9.74444C0.54126 12.2291 0.552255 12.5401 0.596092 13.5161C0.639929 14.4885 0.800855 15.157 1.03118 15.7363C1.26878 16.3512 1.6379 16.9017 2.11311 17.3593C2.58104 17.8241 3.14764 18.1852 3.76907 18.414C4.36494 18.6392 5.04477 18.7965 6.03918 18.8393C7.03701 18.8823 7.35515 18.893 9.8957 18.893C12.4363 18.893 12.7543 18.8823 13.7522 18.8393C14.7465 18.7965 15.43 18.6392 16.0222 18.414C17.2798 17.9384 18.274 16.9661 18.7602 15.7363C18.9904 15.1535 19.1513 14.4885 19.1952 13.5161C19.239 12.5401 19.25 12.2291 19.25 9.74444C19.25 7.25977 19.2463 6.94877 19.2024 5.97275ZM17.5174 13.4446C17.4771 14.3384 17.3236 14.821 17.1957 15.1428C16.8812 15.94 16.2342 16.5728 15.419 16.8803C15.09 17.0054 14.593 17.1556 13.6827 17.1948C12.6957 17.2378 12.3997 17.2484 9.90298 17.2484C7.40627 17.2484 7.10655 17.2378 6.12314 17.1948C5.20927 17.1556 4.71578 17.0054 4.38679 16.8803C3.98112 16.7337 3.61186 16.5013 3.31214 16.1974C3.00142 15.9007 2.76382 15.5432 2.61388 15.1464C2.48594 14.8247 2.33244 14.3384 2.29232 13.4483C2.24834 12.483 2.23748 12.1934 2.23748 9.75156C2.23748 7.30977 2.24834 7.01664 2.29232 6.055C2.33244 5.16124 2.48594 4.67861 2.61388 4.35685C2.76382 3.95996 3.00142 3.59897 3.31585 3.3057C3.61914 3.00182 3.98469 2.76944 4.3905 2.62295C4.71949 2.49782 5.2167 2.3477 6.12685 2.30831C7.11383 2.26544 7.40998 2.25469 9.90655 2.25469C12.407 2.25469 12.703 2.26544 13.6864 2.30831C14.6003 2.3477 15.0938 2.49782 15.4227 2.62295C15.8284 2.76944 16.1977 3.00182 16.4974 3.3057C16.8081 3.60246 17.0457 3.95996 17.1957 4.35685C17.3236 4.67861 17.4771 5.16473 17.5174 6.055C17.5612 7.02027 17.5722 7.30977 17.5722 9.75156C17.5722 12.1934 17.5612 12.4794 17.5174 13.4446Z" fill="white"/>
<path d="M9.89923 5.04346C7.24544 5.04346 5.09229 7.14912 5.09229 9.74467C5.09229 12.3402 7.24544 14.4459 9.89923 14.4459C12.5532 14.4459 14.7062 12.3402 14.7062 9.74467C14.7062 7.14912 12.5532 5.04346 9.89923 5.04346ZM9.89923 12.7942C8.17759 12.7942 6.78108 11.4286 6.78108 9.74467C6.78108 8.06076 8.17759 6.69511 9.89923 6.69511C11.621 6.69511 13.0174 8.06076 13.0174 9.74467C13.0174 11.4286 11.621 12.7942 9.89923 12.7942Z" fill="white"/>
<path d="M16.0187 4.8568C16.0187 5.46288 15.5162 5.95432 14.8963 5.95432C14.2766 5.95432 13.774 5.46288 13.774 4.8568C13.774 4.25057 14.2766 3.75928 14.8963 3.75928C15.5162 3.75928 16.0187 4.25057 16.0187 4.8568Z" fill="white"/>
</svg>
