<svg width="27" height="22" viewBox="0 0 27 22" fill="none" xmlns="http://www.w3.org/2000/svg">
<path d="M19.4582 0.961428C17.2678 0.95012 15.1856 1.8794 13.7747 3.49791C12.3726 1.86834 10.2846 0.936416 8.09121 0.961428C3.97945 0.961428 0.64624 4.18143 0.64624 8.15353C0.64624 14.9604 12.9438 21.6067 13.4424 21.8635C13.6435 21.9934 13.9059 21.9934 14.1071 21.8635C14.6057 21.6067 26.9032 15.0567 26.9032 8.15353C26.9032 4.18143 23.5699 0.961428 19.4582 0.961428ZM13.7747 20.5792C11.847 19.4876 1.97571 13.6761 1.97571 8.15353C1.97571 4.89075 4.71372 2.24568 8.09127 2.24568C10.1596 2.21944 12.0952 3.22726 13.2097 4.9106C13.436 5.21205 13.8725 5.27922 14.1845 5.06056C14.2441 5.01877 14.2965 4.96819 14.3397 4.9106C16.1881 2.1798 19.9782 1.41356 22.805 3.19917C24.5355 4.29229 25.5771 6.15608 25.5737 8.15346C25.5737 13.7403 15.7024 19.5197 13.7747 20.5792Z" fill="white"/>
</svg>
