<svg width="46" height="44" viewBox="0 0 46 44" fill="none" xmlns="http://www.w3.org/2000/svg">
<path d="M7.66669 18.5231H17.6334C18.0573 18.5231 18.4 18.1796 18.4 17.7564C18.4 17.3332 18.0573 16.9897 17.6334 16.9897H7.66669C7.24272 16.9897 6.90002 17.3332 6.90002 17.7564C6.90002 18.1796 7.24272 18.5231 7.66669 18.5231Z" fill="#242424"/>
<path d="M27.6 21.5898H7.66669C7.24272 21.5898 6.90002 21.9333 6.90002 22.3565C6.90002 22.7797 7.24272 23.1232 7.66669 23.1232H27.6C28.024 23.1232 28.3667 22.7797 28.3667 22.3565C28.3667 21.9333 28.024 21.5898 27.6 21.5898Z" fill="#242424"/>
<path d="M27.6 26.1899H7.66669C7.24272 26.1899 6.90002 26.5334 6.90002 26.9566C6.90002 27.3798 7.24272 27.7233 7.66669 27.7233H27.6C28.024 27.7233 28.3667 27.3798 28.3667 26.9566C28.3667 26.5334 28.024 26.1899 27.6 26.1899Z" fill="#242424"/>
<path d="M41.4552 0.943315L15.2797 0.889648C12.7727 0.889648 10.7333 2.92898 10.7333 5.43598V9.36438L4.54633 9.37741C2.03933 9.37741 0 11.4167 0 13.9237V30.1318C0 32.6388 2.03933 34.6774 4.54633 34.6774H9.2V42.3441C9.2 42.6607 9.39473 42.9451 9.69067 43.0594C9.78037 43.0939 9.8739 43.1107 9.96667 43.1107C10.1783 43.1107 10.386 43.0226 10.534 42.86L17.9737 34.6759L30.7203 34.6237C33.2273 34.6237 35.2667 32.5844 35.2667 30.0782V29.9915L39.2993 34.4275C39.4473 34.59 39.6551 34.6782 39.8667 34.6782C39.9594 34.6782 40.053 34.6613 40.1427 34.6268C40.4386 34.5126 40.6333 34.2281 40.6333 33.9115V26.2448H41.4537C43.9607 26.2448 46 24.2055 46 21.6993V5.48965C46 2.98342 43.9614 0.944082 41.4552 0.943315ZM33.7333 30.0774C33.7333 31.7388 32.3817 33.0896 30.7173 33.0896L17.6303 33.1433C17.4156 33.1441 17.2101 33.2353 17.066 33.394L10.7333 40.3607V33.91C10.7333 33.4868 10.3906 33.1433 9.96667 33.1433H4.54633C2.88497 33.1433 1.53333 31.7917 1.53333 30.1311V13.923C1.53333 12.2616 2.88497 10.91 4.54787 10.91L11.5 10.8954C11.5008 10.8954 11.5008 10.8954 11.5015 10.8954L30.7203 10.8555C32.3817 10.8555 33.7333 12.2072 33.7333 13.8685V28.0066V30.0774ZM44.4667 21.6977C44.4667 23.3591 43.115 24.71 41.4537 24.71H39.8667C39.4427 24.71 39.1 25.0534 39.1 25.4766V31.9274L35.2667 27.7107V13.8693C35.2667 11.3623 33.2273 9.32298 30.7188 9.32298L12.2667 9.36055V5.43521C12.2667 3.77385 13.6183 2.42222 15.2781 2.42222L41.4529 2.47588C41.4537 2.47588 41.4537 2.47588 41.4544 2.47588C43.1158 2.47588 44.4674 3.82751 44.4674 5.48888V21.6977H44.4667Z" fill="#242424"/>
</svg>
